# xmcd CD database file
#
# Track frame offsets:
#	187
#	20765
#	37915
#	58410
#
# Disc length: 1006 seconds
#
# Revision: 0
# Processed by: cddbd v1.5.1PL0 Copyright (c) Steve Scherf et al.
# Submitted via: CDex 1.51
#
DISCID=3103ec04
DTITLE=酒井　法子 - 微笑みを見つけた
DYEAR=1990
DGENRE=JPop
TTITLE0=微笑みを見つけた
TTITLE1=正しいパーティー
TTITLE2=微笑みを見つけた（カラオケ）
TTITLE3=正しいパーティー（カラオケ）
EXTD=YEAR: 1990
EXTT0=
EXTT1=
EXTT2=
EXTT3=
PLAYORDER=
